<svg width="21" height="22" viewBox="0 0 21 22" fill="none" xmlns="http://www.w3.org/2000/svg">
<path d="M7.02399 17.0758C7.02399 17.1617 6.92661 17.2305 6.80383 17.2305C6.66411 17.2434 6.56673 17.1746 6.56673 17.0758C6.56673 16.9898 6.66411 16.9211 6.7869 16.9211C6.91391 16.9082 7.02399 16.977 7.02399 17.0758ZM5.70726 16.8824C5.67762 16.9684 5.7623 17.0672 5.88931 17.093C5.9994 17.1359 6.12641 17.093 6.15181 17.007C6.17722 16.9211 6.09677 16.8223 5.96976 16.7836C5.85968 16.7535 5.7369 16.7965 5.70726 16.8824ZM7.57863 16.8094C7.45585 16.8395 7.37117 16.9211 7.38387 17.0199C7.39657 17.1059 7.50665 17.1617 7.63367 17.1316C7.75645 17.1016 7.84113 17.0199 7.82843 16.934C7.81573 16.8523 7.70141 16.7965 7.57863 16.8094ZM10.3645 0.34375C4.49214 0.34375 0 4.86836 0 10.8281C0 15.5934 2.95524 19.6711 7.17641 21.1063C7.71835 21.2051 7.90887 20.8656 7.90887 20.5863C7.90887 20.3199 7.89617 18.8504 7.89617 17.948C7.89617 17.948 4.93246 18.5926 4.31008 16.6676C4.31008 16.6676 3.82742 15.4172 3.13306 15.0949C3.13306 15.0949 2.16351 14.4203 3.20081 14.4332C3.20081 14.4332 4.25504 14.5191 4.83508 15.5418C5.7623 17.2004 7.31613 16.7234 7.92157 16.4398C8.01895 15.7523 8.29415 15.2754 8.59899 14.9918C6.23226 14.7254 3.84436 14.3773 3.84436 10.2437C3.84436 9.06211 4.16613 8.46914 4.84355 7.71289C4.73347 7.43359 4.37359 6.28203 4.95363 4.79531C5.83851 4.51602 7.875 5.95547 7.875 5.95547C8.72177 5.71484 9.63206 5.59023 10.5339 5.59023C11.4357 5.59023 12.346 5.71484 13.1927 5.95547C13.1927 5.95547 15.2292 4.51172 16.1141 4.79531C16.6942 6.28633 16.3343 7.43359 16.2242 7.71289C16.9016 8.47344 17.3165 9.06641 17.3165 10.2437C17.3165 14.3902 14.8228 14.7211 12.456 14.9918C12.8456 15.3312 13.1758 15.9758 13.1758 16.9855C13.1758 18.4336 13.1631 20.2254 13.1631 20.5777C13.1631 20.857 13.3579 21.1965 13.8956 21.0977C18.1294 19.6711 21 15.5934 21 10.8281C21 4.86836 16.2369 0.34375 10.3645 0.34375ZM4.11532 15.1637C4.06028 15.2066 4.07298 15.3055 4.14496 15.3871C4.2127 15.4559 4.31008 15.4859 4.36512 15.4301C4.42016 15.3871 4.40746 15.2883 4.33548 15.2066C4.26774 15.1379 4.17036 15.1078 4.11532 15.1637ZM3.65806 14.8156C3.62843 14.8715 3.67077 14.9402 3.75544 14.9832C3.82319 15.0262 3.90786 15.0133 3.9375 14.9531C3.96714 14.8973 3.9248 14.8285 3.84012 14.7855C3.75544 14.7598 3.6877 14.7727 3.65806 14.8156ZM5.02984 16.3453C4.9621 16.4012 4.9875 16.5301 5.08488 16.6117C5.18226 16.7105 5.30504 16.7234 5.36008 16.6547C5.41512 16.5988 5.38972 16.4699 5.30504 16.3883C5.2119 16.2895 5.08488 16.2766 5.02984 16.3453ZM4.54718 15.7137C4.47944 15.7566 4.47944 15.8684 4.54718 15.9672C4.61492 16.066 4.72923 16.109 4.78427 16.066C4.85202 16.0102 4.85202 15.8984 4.78427 15.7996C4.725 15.7008 4.61492 15.6578 4.54718 15.7137Z" fill="white"/>
</svg>
