<svg width="22" height="22" viewBox="0 0 22 22" fill="none" xmlns="http://www.w3.org/2000/svg">
<path d="M11.0049 5.6094C7.88172 5.6094 5.36252 8.01409 5.36252 10.9953C5.36252 13.9766 7.88172 16.3813 11.0049 16.3813C14.1281 16.3813 16.6473 13.9766 16.6473 10.9953C16.6473 8.01409 14.1281 5.6094 11.0049 5.6094ZM11.0049 14.4969C8.98663 14.4969 7.33663 12.9266 7.33663 10.9953C7.33663 9.06409 8.98172 7.49377 11.0049 7.49377C13.0281 7.49377 14.6732 9.06409 14.6732 10.9953C14.6732 12.9266 13.0232 14.4969 11.0049 14.4969ZM18.1942 5.38909C18.1942 6.08752 17.6049 6.64534 16.8781 6.64534C16.1465 6.64534 15.5621 6.08284 15.5621 5.38909C15.5621 4.69534 16.1514 4.13284 16.8781 4.13284C17.6049 4.13284 18.1942 4.69534 18.1942 5.38909ZM21.9313 6.66409C21.8478 4.98127 21.4451 3.49065 20.1536 2.26252C18.867 1.0344 17.3054 0.650024 15.5424 0.565649C13.7255 0.467212 8.27949 0.467212 6.46252 0.565649C4.70449 0.645337 3.14288 1.02971 1.85136 2.25784C0.559842 3.48596 0.162075 4.97659 0.0736816 6.6594C-0.0294434 8.39377 -0.0294434 13.5922 0.0736816 15.3266C0.157164 17.0094 0.559842 18.5 1.85136 19.7282C3.14288 20.9563 4.69957 21.3407 6.46252 21.425C8.27949 21.5235 13.7255 21.5235 15.5424 21.425C17.3054 21.3453 18.867 20.961 20.1536 19.7282C21.4402 18.5 21.8429 17.0094 21.9313 15.3266C22.0344 13.5922 22.0344 8.39846 21.9313 6.66409ZM19.584 17.1875C19.2009 18.1063 18.4594 18.8141 17.492 19.1844C16.0433 19.7328 12.6058 19.6063 11.0049 19.6063C9.40404 19.6063 5.96163 19.7282 4.51788 19.1844C3.55538 18.8188 2.81386 18.111 2.42591 17.1875C1.85136 15.8047 1.98395 12.5235 1.98395 10.9953C1.98395 9.46721 1.85627 6.18127 2.42591 4.80315C2.80895 3.8844 3.55047 3.17659 4.51788 2.80627C5.96654 2.25784 9.40404 2.3844 11.0049 2.3844C12.6058 2.3844 16.0482 2.26252 17.492 2.80627C18.4545 3.1719 19.196 3.87971 19.584 4.80315C20.1585 6.18596 20.0259 9.46721 20.0259 10.9953C20.0259 12.5235 20.1585 15.8094 19.584 17.1875Z" fill="white"/>
</svg>
