<svg width="22" height="23" viewBox="0 0 22 23" fill="none" xmlns="http://www.w3.org/2000/svg">
<path d="M11 0C4.92485 0 0 4.98781 0 11.1406C0 17.2934 4.92485 22.2812 11 22.2812C17.0751 22.2812 22 17.2934 22 11.1406C22 4.98781 17.0751 0 11 0ZM16.0987 7.57652C15.9331 9.33814 15.2169 13.613 14.8523 15.5861C14.6981 16.4209 14.3945 16.7009 14.1006 16.7282C13.4619 16.7878 12.9767 16.3007 12.358 15.8899C11.3899 15.2472 10.8429 14.8471 9.90315 14.2199C8.81712 13.4951 9.52117 13.0968 10.1401 12.4455C10.3021 12.2751 13.1166 9.68233 13.1711 9.44711C13.1779 9.41769 13.1844 9.30786 13.1199 9.25018C13.0554 9.1925 12.9607 9.21204 12.8921 9.22772C12.7951 9.25006 11.2484 10.2854 8.25226 12.3337C7.8133 12.639 7.41567 12.7877 7.05938 12.78C6.66662 12.7714 5.91112 12.5551 5.34946 12.3701C4.66058 12.1434 4.11307 12.0235 4.16075 11.6383C4.18559 11.4377 4.45837 11.2325 4.9791 11.0229C8.18583 9.60791 10.3241 8.67503 11.394 8.22425C14.4489 6.93737 15.0836 6.71384 15.4974 6.70639C15.5884 6.70486 15.7918 6.72768 15.9236 6.83599C16.0113 6.91314 16.0671 7.0208 16.0802 7.13768C16.1025 7.2828 16.1087 7.43 16.0987 7.57652Z" fill="white"/>
</svg>
